<svg xmlns="http://www.w3.org/2000/svg" xml:space="preserve" viewBox="0 0 512 512">
    <style type="text/css">
        .fill { fill: #000; }
        @media (prefers-color-scheme: dark) {
          .fill { fill: #fff; }
        }
    </style>
    <path d="m364.641 430.084-20.073 16.502a3.516 3.516 0 0 1-4.946-.483 3.517 3.517 0 0 1 .482-4.947l19.252-15.826-2.116-1.903c-4.22-3.796-4.564-10.304-.768-14.524l20.195-22.452c3.025-3.362 7.771-4.264 11.709-2.572l-4.596 6.238a3.25 3.25 0 0 0-1.887 1.034l-20.196 22.452a3.26 3.26 0 0 0 .244 4.599l2.906 2.613 5.283-4.343a3.516 3.516 0 0 1 4.947.483 3.516 3.516 0 0 1-.483 4.946l-4.462 3.668 1.791 1.611a3.257 3.257 0 0 0 4.598-.243l20.195-22.452a3.257 3.257 0 0 0-.243-4.598l-.295-.266 4.189-5.685.806.725c4.221 3.796 4.565 10.304.769 14.525l-20.195 22.451c-3.796 4.221-10.304 4.565-14.524.769zM102.509 313.678c16.153-23.327 31.038-46.055 45.053-90.117 4.685-14.729 6.134-27.113 3.85-34.495-3.324-10.743-9.82-23.821-11.473-26.202-6.703-9.654-5.462-27.212-3.872-39.995 5.708-45.879 18.964-61.127 24.755-68.65 7.978-10.365 32.969-33.636 36.128-36.24C198.746 16.499 218.816-.044 219.826 0c3.165.139.992 18.296 2.49 25.239.814 3.774 1.34 10.811 6.183 22.359 1.337 3.189 3.004 6.722 5.097 10.626 4.188 7.812 7.92 4.631 25.451 5.155 9.752.292 77.042-.773 79.171-3.934 2.09-3.106 5.508-12.717 7.543-23.319 1.2-6.253 1.919-12.852 1.6-18.665-.242-4.431-1.67-12.865.539-12.786 1.155.042 12.681 7.307 23.878 23.177 24.591 34.854 16.856 57.81 26.315 68.284 7.229 8.004 7.607 14.076 20.457 31.153 11.896 15.808 12.505 20.389 15.461 33.046.171.735.037.688.764 9.403.817 9.781-2.341 12.725.53 21.121 6.819 19.943 18.271 41.677 2.536 83.609-2.3 6.129 5.024 18.251-.677 42.169-8.538 35.82-11.207 40.356-22.156 39.318-5.278-.501-1.392 10.888-14.187 16.064-2.186.884-5.359 1.568-6.067 1.696-3.894.703-5.041 2.889-4.588 6.257-5.602-2.453-12.381-1.186-16.692 3.607l-20.196 22.452c-4.898 5.445-4.933 13.579-.387 19.053l-2.444 2.009c-4.613-3.838-11.327-4.567-16.778-1.328l-25.962 15.424c-5.072 3.014-7.65 8.63-7.046 14.139l-4.88.968c-1.64-5.601-6.576-9.902-12.737-10.437l-30.085-2.612c-6.175-.536-11.791 2.868-14.363 8.125l-5.806-1.935c.984-5.757-1.571-11.792-6.88-14.972l-25.906-15.518c-6.247-3.742-14.18-2.257-18.696 3.176l-4.894-3.988c4.144-5.343 4.125-13.041-.433-18.388l-19.59-22.981c-4.685-5.496-12.584-6.651-18.581-3.056l-2.894-4.19c5.984-4.355 7.807-12.636 3.985-19.154l-15.275-26.051c-3.837-6.544-12.002-8.99-18.741-5.839zm78.993-227.541c-6.434 3.867-13.637-2.096-9.988 2.313.108.13 5.917 3.339 8.871 7.407 1.946 2.681 2.81 1.364 4.77-1.288a90 90 0 0 0 3.098-4.461l.024-.038a84 84 0 0 0 2.438-4 75 75 0 0 0 2.702-5.19 71 71 0 0 0 1.817-4.194 69 69 0 0 0 1.757-4.993 72 72 0 0 0 1.906-7.625c.978-5.043 1.351-9.634 1.682-13.739q.098-1.242.199-2.426c.149-1.73.555-1.649.801-14.807.006-.334.168-8.97-1.73-3.801-.044.119.138 5.766-3.804 21.478a302 302 0 0 1-2.617 9.705q-.296 1.032-.598 2.021a110 110 0 0 1-2.087 6.176 95 95 0 0 1-1.603 4.032 87 87 0 0 1-1.536 3.418 74 74 0 0 1-2.206 4.28q-.489.874-.931 1.612a54 54 0 0 1-1.057 1.698l-.02.031a50 50 0 0 1-1.302 1.905l-.149.207a10 10 0 0 1-.437.279m59.691 117.606c-6.427-5.605-6.572-6.501-7.403-7.351-3.823-3.91-1.705 2.813 4.877 9.96 7.626 8.283 22.24 9.638 20.798 7.211-1.242-2.091-3.09.716-18.272-9.82m24.281-26.49c3.327 1.675 3.909-2.91 1.221-2.601-1.86.214-1.727.818-1.221 2.601M247.63 368.634c-21.252-15.657-13.545-32.292-24.249-44.716-1.225-1.421-6.69-4.987-7.48-5.041-3.653-.25 3.657 3.264 7.441 15.741.279.921 2.683 8.845 2.972 11.655.196 1.902-.89.862-2.696.34-2.583-.746-14.397-2.506-29.378-10.887-41.09-22.983-47.237-74.114-47.407-74.256-2.605-2.176-1.05 14.643.585 22.254 5.931 27.607 9.818 32.064 18.299 42.334 11.254 13.629 22.286 21.417 57.91 31.344 7.347 2.048 6.55 3.63 11.421 9.444 10.625 12.683 16.039 10.723 19.844 15.818 2.582 3.457 2.354 5.625 2.44 21.108.034 6.289-.467 11.034 1.893 6.858 3.7-6.368 3.991-6.314 6.771-19.059.708-3.247-4.094-6.703-.117-6.223 20.666 2.491 34.507-9.363 52.302-11.309 4.554-.498 7.609-1.735 10.288-1.576 2.557.151-1.725 3.83-1.904 4.012-13.158 13.401 5.565-.538 7.956.452 2.549 1.055-10.991 30.536-12.683 33.242-1.055 1.686 1.057 2.027 1.915.188 2.082-4.465 10.275-12.412 21.369-31.869 3.337-5.852 3.807-5.483 7.181-11.284 2.042-3.51-12.884-.48-24.751-.176-8.298.212-8.159 1.263-16.397 1.531-13.564.441-37.392 17.102-60.346 2.267a63 63 0 0 1-3.179-2.192m-79.117-275.14a15 15 0 0 0-.299-.171c-5.204-2.908-1.175 2.142.849 7.707 1.386 3.809-1.383 6.649 2.074 5.87.518-.485 1.078-.924 1.596-1.408.846-.791 1.312-1.806 1.437-2.927.175-1.57-.322-3.35-1.385-5.017-.975-1.528-2.425-2.961-4.272-4.054m190.855-58.699c-.181 1.038-.228 2.065-.236 2.232-1.103 23.934 2.295 27.16 6.626 29.786 10.403 6.306-3.289-5.14-4.217-32.23-.293-1.608-.093-1.741-.576-2.012-.899-.504-1.362.869-1.597 2.224m-95.053 134.564c.395.021 8.715.464 4.782-1.274-12.309-5.439-32.841 8.683-29.156 9.679.993.269.97-.037 11.913-4.819 7.041-3.077 9.509-2.98 12.461-3.586m47.261 18.062c-1.787 1.551-3.052 1.39-1.999 2.674.186.227 10.029-1.513 13.574-13.226.107-.356 1.785-5.899-.192-4.641-.129.082-5.229 9.241-11.383 15.193m91.16 64.668c-2.001 2.08-2.126 6.871-2.142 7.476-.427 16.248 15.425 9.783 16.019 3.874-1.21.316-1.178.262-2.389.625-5.267 1.579-8.709-.412-8.878-2.891-.195-2.853.006-5.164.127-6.846.171-2.38.182-3.497-1.319-3.101-.555.147-1.023.452-1.418.863m-56.6-.416c-1.226 1.177 2.496 11.441 8.179 15.444 25.354 17.859 33.823-12.873 24.912-16.388-4.748-1.874-3.57 4.847-3.723 8.08-.478 10.112-21.009 11.044-28.047-5.728-.379-1.175-.783-1.924-1.321-1.408m2.121 91.842c-6.044 5.72-5.741 5.957-11.848 11.577-7.841 7.214 27.607-1.171 27.863-1.016 1.846 1.12-3.587 4.583-14.054 6.214-1.916.299-1.168 1.917.763 1.794 14.769-.941 30.256 1.249 41.227-5.134 5.206-3.028 9.395-7.987 12.008-16.125.448-1.393.912-6.926-.755-7.422-6.288-1.871-18.073-3.711-30.417-1.526-8.539 1.512-17.347 4.95-24.787 11.638M242.362 180.071c-2.223.005-4.71.638-5.023.981-1.173 1.284 8.891 11.314 10.8 12.578a28 28 0 0 0 4.62 2.489c6.801 2.852 12.833 1.921 17.002.63 2.127-.659 3.769-1.41 4.782-1.802 9.87-3.811 11.701.701 13.005-1.151.979-1.392-4.553-3.175-6.659-4.112-5.14-2.284-6.498.611-11.119.786a89 89 0 0 1-4.761.061c-10.671-.177-12.154-2.716-15.181-4.756-3.764-3.497-3.507-4.165-4.385-4.939-.645-.568-1.821-.768-3.081-.765m44.932 69.351c-3.468 8.997-6.13 18.873-7.503 28.891-.253 1.846 1.148 1.931 1.605.71 5.682-15.19 11.044-16.56 11.31-13.245 1.309 16.323-9.34 28.673 9.706 39.345 7.917 4.436-3.946 2.461-9.292-.87-4.597-2.864-.555 7.058.255 8.316 7.351 11.412 17.483 11.435 24.737 12.032.041.437.605.709.647 1.145.056.598-8.785 1.506-11.495 1.044-9.952-1.694-12.261-3.294-11.225-.779 3.251 7.889 19.311 23.137 44.166 11.185a30 30 0 0 0 2.919-1.604c6.179-3.875 8.787-8.939 19.445-17.42 2.639-2.1 5.773-4.409 9.576-6.962.162-.109 2.639-1.772 2.442-.095-.047.398-5.986 5.082-10.459 9.097-3.782 3.396-6.516 6.315-3.749 5.758.902-.181 1.506-1.19 5.313-3.712 2.59-1.717 6.663-4.134 13.322-7.469 6.175-3.093 4.467-4.628 5.819-11.447.065-.33.275-7.076-.009-8.69-1.251-7.103-23.843-2.575-37.593-30.465-2.244-4.551-3.881-11.092-4.233-15.857-.219-2.961.058-5.237.993-5.923.469-.344 1.045-.51 1.55-.797.663-.375 7.384-12.815 26.115-14.943q.582-.066 1.18-.119c7.044-.619 6.992-1.103 14.048-.329 5.768.632 21.465-.65 30.296 15.512 5.369 9.826 1.896 14.503 1.424 20.939-1.936 16.259-13.51 22.742-15.496 23.854-3.589 2.01-12.099 5.085-12.557 8.104-1.082 7.145-.647 7.149-1.526 14.88-.639 5.623 2.929 3.649 12.657 11.959.889.76 2.113.035.748-1.697-.693-.879-7.032-8.066-3.83-6.931.847.3 8.515 7.154 12.972 14.866 8.431 14.589 4.882 23.528 10.297 19.801 4.642-3.195 10.108-25.753 11.657-30.912.002-.005 5.651-18.196-3.956-52.291-.447-1.587-3.296-10.701-3.228-10.911.673-2.081 2.338 1.459 2.439 1.673 1.51 3.209 4.989 10.962 5.744 11.02 2.703.205 8.399-25.993 6.468-37.015-1.023-5.838-.547-10.365-5.164-23.294-.002-.006-2.838-9.61-4.021-6.955-.822 1.842-1.7 16.714-11.979 27.409-3.999 4.161.221-3.256.36-3.5 5.917-10.403 12.428-45.532 9.552-59.194-.919-4.369.149-11.75-13.672-33.778-5.37-8.559-21.43-31.311-24.529-34.906-3.195-3.705-21.305-27.955-51.472-28.916-16.708-.533-32.419-.125-40.693 4.123-6.776 3.478-1.428 6.139 3.644 14.77 1.835 3.123 3.349 5.466 4.687 7.388 4.521 6.49 7.035 8.16 13.152 18.788 5.502 9.559 8.533 17.803 10.175 25.449 2.502 11.649 1.777 21.908 1.645 33.305-.203 17.604 6.168 24.338 3.635 28-.383.552-.968 1.035-1.809 1.475-12.255 6.402-14.402 5.781-23.968 14.507a181 181 0 0 0-3.555 3.342c-3.744 3.608-7.447 8.435-10.877 14.131-3.246 5.391-6.248 11.559-8.81 18.208m109.474-96.739c-.664 3.785-4.105 9.527-1.309 8.248 2.738-1.253 4.609-3.476 4.101-.507-.136.793-.828.306-6.732 7.477-9.081 11.027-2.128-15.475 3.94-15.218m-42.241 1.446c-.148-3.478-.483-3.605.121-4.209 2.446-2.445-.735 4.343 10.266 21.484 3.727 5.809-9.176-.189-10.387-17.275m12.722-10.442c-.895-.412-1.342-.283-1.046-1.232 3.695-11.845 21.857-12.752 15.103-9.615-1.15.534-2.401.831-3.55 1.366-5.88 2.736-10.498 9.472-10.507 9.481m48.213 88.817c-1.835-2.211-13.866-16.7-24.08-26.649-12.102-11.788 6.514 2.147 8.53 4.045 14.508 13.653 15.298 17.266 18.485 23.839 5.209 10.746-2.792-1.024-2.935-1.235m-24.248-50.031c6.202-10.595 9.707-13.334 18.35-13.167 9.13.177 13.051 6.742 12.976 7.471-.362 3.54-4.468-1.763-5.583 1.655-5.109 15.657-19.631 8.917-23.757 9.61-1.06.178-2.092.527-3.161.635-2.647.266.918-5.769 1.175-6.204m13.291-7.627q0 .19.017.421c.241 3.211 3.537-1.113 3.957.763.076.341-1.347 2.745-1.482 2.974-3.748 6.33-8.872-1.784-10.865 2.377-2.613 5.457 5.037 4.477 7.183 4.443 7.221-.115 8.999-6.551 9.015-6.73.524-6.228-1.595-5.839-5.086-5.82-1.857.342-2.74-.004-2.739 1.572m-236.949 47.867c-2.548 4.694-3.374 9.285-3.557 10.304-.975 5.422 3.661-2.534 3.854-2.866 2.874-4.093 2.928-4.039 3.167-4.402 3.159-4.808 6.23-13.132 2.803-10.545-2.788 2.104-4.809 4.823-6.267 7.509m229.915 141.123c-2.694 2.7-6.872 5.335-3.54 5.415.626.015 6.336-1.868 6.842-2.237 7.845-5.713 9.159-17.058 5.861-12.785-4.077 5.282-4.794 4.583-9.163 9.607M373.599 232.64c-.808.2-12.306 3.05-9.21 4.842 2.312 1.339 26.494-7.681 9.21-4.842m-143.666-71.752c-9.49 7.25-21.846 19.049-10.876 20.314 10.233 1.179 13.236-6.277 16.44-11.726.527-.895 1.059-1.736 1.629-2.476q.401-.521.832-.969a34 34 0 0 1 5.059-4.273l.103-.072a41.6 41.6 0 0 1 6.152-3.482 51 51 0 0 1 6.755-2.543c4.875-1.461 8.789-1.905 9.912-2.033 1.943-.22 1.977-1.853.859-2.106-4.776-1.079-10.619-.73-14.856-.214-2.792.34-4.887.752-5.522.878-.587.115-1.209.284-1.849.491-2.083.675-4.362 1.759-6.244 2.75l-.106.056c-1.934 1.022-3.429 1.934-3.825 2.175a92 92 0 0 0-2.431 1.713c-.655.477-1.336.985-2.032 1.517m24.197 15.41c-.388.2-.821.469-1.303.82-1.817 1.327-1.424 8.541 9.72 10.192l.221.032c1.062.001 13.967.012 12.555-4.333-.162-.5-2.703-8.322-4.681-4.611-3.064 5.748-11.878 5.882-13.095-.882-.058-.324-.477-2.654-3.287-1.284zm51.855-3.346c-.919 1.941-1.399 3.087-.306 2.777.434-.123 1.138-.62 1.963-1.421 4.713-4.572 13.402-19.031-1.304-30.114-5.127-3.863-13.279-4.622-12.84-3.354.101.293.661.693 1.821 1.189 2.678 1.094 15.605 5.146 13.924 21.474-.363 3.531-2.137 7.082-3.258 9.449M389.551 289.5c.242-.491 1.5-3.042 2.237-6.457.2-.925.865-10.272-.124-10.347-2.959-.224.151 2.198-3.652 15.812-.345 1.236.327 3.035 1.539.992M161.33 66.934c-2.029 3.408-3.819 6.8-5.224 10.049-13.654 31.582-8.5 40.384-6.851 49.887.532 3.065 2.613 1.077 2.783.915 5.101-4.875 8.733-7.695 11.344-9.504 3.877-2.685 5.506-3.141 6.358-4.783 1.301-2.507-2.435.15-6.494 1.367-1.209.363-2.447.598-3.589.531-4.183-.246-5.484-12.753 2.284-33.168a137 137 0 0 1 2.964-7.158q.504-1.13 1.043-2.286a165 165 0 0 1 2.978-6.057l.107-.206.048-.094.179-.344.256-.489.007-.013.37-.698.34-.637a206 206 0 0 1 1.567-2.86q.407-.727.827-1.464.653-1.143 1.336-2.304a213 213 0 0 1 3.029-4.981c3.838-6.124 8.31-12.577 13.493-19.305 1.093-1.268 1.135-1.204 1.397-1.741 1.826-3.742-2.982.14-9.787 7.648-3.523 3.889-7.582 8.749-11.532 14.027a185 185 0 0 0-3.592 4.967l-.45.647c-.187.272-2.547 3.798-3.117 4.692q-.29.453-.573.907-.77 1.228-1.501 2.455m96.584 294.54c7.771 3.464 18.124 2.798 18.45 2.101.935-2.004-8.547-2.522-15.973-5.547-7.656-3.118-12.494-5.703-11.337-3.325.012.025 3.218 4.286 8.86 6.771m-151.122-39.147c4.736-2.159 10.439-.426 13.129 4.161l15.274 26.05c2.677 4.566 1.429 10.357-2.721 13.446l-4.003-5.795a3.26 3.26 0 0 0 .661-4.096l-15.274-26.05a3.26 3.26 0 0 0-3.941-1.406zm7.043 16.169 8.745 14.914a7.81 7.81 0 0 0-10.712 4.166l-6.707-11.437a7.813 7.813 0 0 0 8.674-7.643m-17.236-1.557a3.26 3.26 0 0 0 .059 3.189l15.275 26.05a3.25 3.25 0 0 0 2.804 1.609l4.228 6.122c-4.729 2.136-10.412.4-13.095-4.176l-15.275-26.05c-2.671-4.556-1.434-10.332 2.695-13.426zm29.149 46.79-.128.109c-6.124 5.22-6.858 14.43-1.638 20.554l19.591 22.981c5.22 6.124 14.43 6.858 20.553 1.638l.445-.379 8.492 6.92c-4.077 6.893-1.822 15.807 5.057 19.928l25.907 15.518c6.903 4.135 15.864 1.888 19.999-5.015l1.499-2.503 10.733 3.576-.246 2.831c-.696 8.017 5.248 15.09 13.264 15.786l30.086 2.612c8.016.696 15.09-5.248 15.785-13.264l.237-2.722 12.386-2.459 1.707 2.873c4.111 6.918 13.064 9.198 19.982 5.088l25.962-15.425c6.917-4.11 9.197-13.063 5.087-19.981l-1.339-2.253 5.347-4.396c5.986 5.225 15.092 4.691 20.424-1.236l18.55-20.623c4.372 14.438 5.341 31.241-7.134 47.789-31.484 41.763-55.758 50.413-118 50.323-69.357-.1-137.228-46.035-177.842-83.868-29.561-27.537-40.66-44.78-30.696-63.155 5.158-9.513 10.191-17.815 15.107-25.429a14.5 14.5 0 0 0 1.965 6.308l15.274 26.051c3.939 6.716 12.436 9.117 19.27 5.578zm14.511-6.474c4.198-2.362 9.621-1.506 12.863 2.297l19.591 22.982c3.191 3.743 3.228 9.121.37 12.886l-5.46-4.45a3.26 3.26 0 0 0-.259-3.877l-19.591-22.982a3.26 3.26 0 0 0-3.463-.991zm8.779 14.96 12.416 14.567a7.813 7.813 0 0 0-9.767 6.034l-10.749-12.609a7.77 7.77 0 0 0 4.731-1.378 7.8 7.8 0 0 0 3.369-6.614m-16.732 1.009a3.26 3.26 0 0 0 .294 3.822l19.59 22.982a3.26 3.26 0 0 0 3.144 1.075l5.851 4.769c-4.319 3.539-10.705 2.983-14.344-1.285l-19.59-22.982c-3.624-4.251-3.18-10.61.952-14.321zm52.332 31.613c3.19-3.804 8.766-4.837 13.159-2.205l25.906 15.518c3.544 2.123 5.348 6.049 4.943 9.907l-7.258-2.419a3.24 3.24 0 0 0-1.297-1.458l-25.906-15.519a3.26 3.26 0 0 0-4.096.618zm11.564 10.039 14.401 8.627a7.803 7.803 0 0 0-5.175 10.128l-12.755-7.641a7.817 7.817 0 0 0 3.529-11.114m-13.841 8.254a3.25 3.25 0 0 0 1.578 2.636l25.906 15.518a3.26 3.26 0 0 0 4.467-1.12l.21-.351 6.83 2.276-1.011 1.687c-2.917 4.869-9.238 6.454-14.107 3.537l-25.906-15.518c-4.665-2.794-6.316-8.712-3.882-13.486zm60.363 9.617c1.917-3.416 5.711-5.581 9.864-5.221l30.085 2.612c4.212.365 7.612 3.226 8.871 6.999l-7.076 1.405a3.25 3.25 0 0 0-2.403-1.402l-30.085-2.612a3.24 3.24 0 0 0-2.158.584zm13.595 6.469 19.54 1.697a7.815 7.815 0 0 0-1.683 11.244l-21.13-1.834a7.79 7.79 0 0 0 4.02-4.566 7.79 7.79 0 0 0-.747-6.541m-9.014 11.519-.012.132a3.26 3.26 0 0 0 2.963 3.525l30.085 2.612a3.26 3.26 0 0 0 3.426-2.4l7.23-1.435-.129 1.48c-.491 5.655-5.48 9.848-11.135 9.357l-30.085-2.612c-5.655-.491-9.848-5.48-9.357-11.135l.157-1.807 6.741 2.246zm72.627-18.642 14.61-8.68a7.803 7.803 0 0 0 8.335 8.248l-16.866 10.021a7.816 7.816 0 0 0-6.079-9.589m48.687-39.762 9.485-10.545a7.79 7.79 0 0 0 3.073 5.029 7.8 7.8 0 0 0 6.504 1.293l-7.865 8.744a7.8 7.8 0 0 0-1.421-2.625c-2.42-2.944-6.551-3.661-9.776-1.896m-63.722 42.156a10.29 10.29 0 0 1 5.004-9.605l25.962-15.425c3.594-2.135 7.966-1.825 11.179.435l-6.289 5.171a3.2 3.2 0 0 0-1.3.437l-25.962 15.424a3.25 3.25 0 0 0-1.529 2.161zm14.732 12.999a3.26 3.26 0 0 0 4.046.58l25.962-15.425a3.257 3.257 0 0 0 1.136-4.462l-.453-.762 5.493-4.516 1.002 1.688c2.9 4.879 1.292 11.195-3.588 14.094l-25.962 15.425c-4.88 2.899-11.196 1.291-14.095-3.589l-.931-1.566zM89.547 313.021a3.517 3.517 0 0 1 1.59-4.709 3.517 3.517 0 0 1 4.709 1.59l13.329 26.916a3.516 3.516 0 0 1-1.589 4.709 3.517 3.517 0 0 1-4.709-1.59zm26.701 49.398a3.515 3.515 0 0 1 5.783-3.995l22.091 31.983a3.514 3.514 0 0 1-5.783 3.994zm40.885 54.609a3.516 3.516 0 0 1-.504-4.944 3.516 3.516 0 0 1 4.944-.504l30.131 24.557a3.516 3.516 0 0 1 .504 4.944 3.515 3.515 0 0 1-4.944.504zm54.536 37.308a3.516 3.516 0 0 1-2.223-4.445 3.516 3.516 0 0 1 4.445-2.223l36.877 12.287a3.515 3.515 0 0 1-2.221 6.668zm69.329 16.439a3.516 3.516 0 0 1-4.131-2.763 3.516 3.516 0 0 1 2.763-4.131l38.126-7.568a3.515 3.515 0 0 1 1.369 6.894zm107.641-68.163a3.517 3.517 0 0 1-4.914.745 3.516 3.516 0 0 1-.744-4.914l15.254-20.704a3.517 3.517 0 0 1 4.914-.745 3.516 3.516 0 0 1 .745 4.914z" class="fill"/></svg>
