<svg xmlns="http://www.w3.org/2000/svg" xml:space="preserve" style="fill-rule:evenodd;clip-rule:evenodd;stroke-linejoin:round;stroke-miterlimit:2" viewBox="0 0 768 768">
<style>.fill{fill:#000}@media(prefers-color-scheme:dark){.fill{fill:#fff}}</style>
<path d="m496.962 595.849-25.703 21.132a4.5 4.5 0 0 1-6.334-.619 4.5 4.5 0 0 1 .618-6.334l24.651-20.266-2.708-2.436c-5.404-4.861-5.845-13.195-.984-18.599l25.86-28.75c3.873-4.305 9.95-5.46 14.994-3.293l-5.886 7.988a4.15 4.15 0 0 0-2.417 1.324l-25.86 28.75a4.17 4.17 0 0 0 .312 5.888l3.721 3.348 6.766-5.563a4.501 4.501 0 0 1 5.715 6.952l-5.714 4.698 2.294 2.063a4.17 4.17 0 0 0 5.888-.312l25.86-28.75a4.17 4.17 0 0 0-.311-5.888l-.378-.34 5.364-7.28 1.033.929c5.404 4.861 5.844 13.194.984 18.598l-25.861 28.75c-4.86 5.404-13.194 5.845-18.598.984zM161.299 446.79c20.684-29.87 39.745-58.973 57.691-115.395 5.999-18.86 7.854-34.719 4.93-44.171-4.257-13.757-12.575-30.504-14.691-33.552-8.583-12.362-6.994-34.846-4.958-51.214 7.309-58.75 24.283-78.275 31.698-87.908 10.217-13.272 42.218-43.071 46.263-46.405 2.3-1.896 28-23.079 29.293-23.023 4.052.178 1.27 23.428 3.188 32.319 1.043 4.832 1.716 13.844 7.918 28.631 1.712 4.084 3.846 8.608 6.526 13.606 5.364 10.003 10.143 5.931 32.591 6.602 12.488.373 98.654-.99 101.379-5.038 2.677-3.978 7.054-16.284 9.659-29.86 1.537-8.008 2.457-16.458 2.05-23.9-.311-5.674-2.14-16.475.69-16.373 1.479.053 16.237 9.357 30.575 29.678 31.49 44.631 21.585 74.026 33.698 87.438 9.257 10.25 9.739 18.025 26.194 39.892 15.233 20.243 16.014 26.108 19.798 42.316.22.941.047.881.979 12.041 1.046 12.525-2.998 16.295.678 27.046 8.732 25.536 23.397 53.368 3.247 107.062-2.945 7.848 6.434 23.37-.866 53.998-10.932 45.867-14.351 51.676-28.371 50.347-6.759-.642-1.783 13.943-18.167 20.57-2.798 1.132-6.862 2.008-7.769 2.172-4.986.9-6.454 3.699-5.875 8.012-7.173-3.141-15.854-1.519-21.374 4.618l-25.861 28.75c-6.272 6.974-6.317 17.389-.496 24.399l-3.129 2.572c-5.907-4.915-14.505-5.848-21.485-1.701l-33.244 19.752c-6.495 3.858-9.797 11.05-9.023 18.104l-6.249 1.24c-2.099-7.173-8.42-12.68-16.309-13.365l-38.525-3.344c-7.908-.687-15.099 3.672-18.392 10.403l-7.434-2.477c1.26-7.372-2.012-15.099-8.81-19.171l-33.173-19.872c-8-4.792-18.159-2.89-23.941 4.067l-6.266-5.107c5.306-6.841 5.281-16.699-.555-23.546l-25.085-29.428c-6-7.038-16.114-8.516-23.794-3.912l-3.706-5.366c7.663-5.577 9.997-16.18 5.103-24.527l-19.559-33.358c-4.914-8.38-15.369-11.513-23.998-7.477zM262.45 155.422c-8.238 4.951-17.461-2.685-12.789 2.962.138.166 7.577 4.275 11.36 9.485 2.492 3.432 3.597 1.745 6.108-1.651a118 118 0 0 0 2.789-3.938q.604-.892 1.177-1.774l.031-.048a107 107 0 0 0 3.122-5.122 97 97 0 0 0 3.46-6.647 91 91 0 0 0 2.327-5.37 89 89 0 0 0 2.249-6.393 92 92 0 0 0 2.441-9.764c1.253-6.457 1.731-12.336 2.154-17.593q.126-1.591.255-3.107c.19-2.215.71-2.111 1.025-18.961.008-.427.215-11.485-2.215-4.866-.056.152.177 7.384-4.871 27.502a385 385 0 0 1-3.351 12.427q-.378 1.323-.766 2.589a140 140 0 0 1-2.672 7.908 125 125 0 0 1-2.052 5.163 111 111 0 0 1-1.967 4.377 95 95 0 0 1-2.825 5.481 83 83 0 0 1-1.193 2.064 70 70 0 0 1-1.353 2.175l-.025.039a59 59 0 0 1-1.668 2.44l-.191.264q-.28.189-.56.358m76.436 150.596c-8.23-7.178-8.416-8.325-9.48-9.413-4.895-5.007-2.183 3.601 6.245 12.754 9.766 10.605 28.479 12.341 26.633 9.234-1.591-2.678-3.957.916-23.398-12.575m31.092-33.922c4.26 2.146 5.006-3.726 1.563-3.33-2.381.274-2.211 1.047-1.563 3.33m-22.849 245.067c-27.215-20.05-17.345-41.351-31.052-57.26-1.568-1.82-8.567-6.386-9.578-6.455-4.678-.321 4.682 4.179 9.528 20.156.358 1.18 3.435 11.327 3.806 14.926.251 2.434-1.14 1.103-3.452.435-3.308-.956-18.436-3.21-37.62-13.941-52.615-29.431-60.486-94.904-60.704-95.086-3.336-2.787-1.345 18.75.749 28.496 7.594 35.352 12.572 41.059 23.432 54.21 14.411 17.451 28.537 27.424 74.154 40.136 9.409 2.622 8.388 4.648 14.625 12.093 13.605 16.24 20.538 13.731 25.411 20.255 3.306 4.427 3.014 7.203 3.123 27.029.045 8.054-.597 14.129 2.425 8.782 4.738-8.155 5.11-8.086 8.67-24.406.907-4.158-5.243-8.583-.15-7.969 26.464 3.191 44.187-11.989 66.974-14.481 5.831-.637 9.743-2.22 13.174-2.017 3.275.193-2.209 4.903-2.439 5.137-16.849 17.161 7.126-.689 10.188.578 3.265 1.352-14.073 39.103-16.241 42.567-1.351 2.16 1.354 2.596 2.452.241 2.667-5.717 13.157-15.893 27.364-40.808 4.273-7.494 4.876-7.022 9.196-14.45 2.614-4.495-16.499-.614-31.694-.225-10.626.272-10.448 1.618-20.997 1.96-17.369.565-47.882 21.899-77.274 2.903a81 81 0 0 1-4.07-2.806m-101.312-352.32a16 16 0 0 0-.382-.22c-6.664-3.723-1.504 2.743 1.088 9.869 1.774 4.878-1.772 8.514 2.656 7.517.663-.621 1.38-1.183 2.043-1.803 1.083-1.014 1.68-2.312 1.84-3.748.224-2.011-.412-4.289-1.774-6.425-1.248-1.956-3.105-3.791-5.471-5.19M490.21 89.678c-.232 1.329-.292 2.644-.302 2.858-1.413 30.647 2.938 34.779 8.484 38.141 13.322 8.075-4.211-6.582-5.4-41.271-.375-2.059-.119-2.23-.736-2.576-1.151-.645-1.744 1.112-2.046 2.848M368.494 261.989c.506.027 11.16.593 6.123-1.632-15.762-6.964-42.053 11.119-37.334 12.394 1.271.344 1.242-.048 15.255-6.171 9.015-3.94 12.176-3.816 15.956-4.591m60.518 23.128c-2.288 1.986-3.908 1.78-2.56 3.424.239.291 12.842-1.937 17.382-16.936.138-.455 2.286-7.554-.246-5.943-.165.105-6.696 11.834-14.576 19.455m116.732 82.808c-2.563 2.664-2.723 8.798-2.744 9.574-.545 20.805 19.753 12.526 20.513 4.96-1.55.405-1.508.335-3.059.8-6.744 2.022-11.151-.528-11.368-3.701-.25-3.654.007-6.614.162-8.767.22-3.047.234-4.478-1.689-3.971-.71.188-1.31.579-1.815 1.105m-72.477-.532c-1.57 1.507 3.195 14.65 10.473 19.776 32.466 22.869 43.311-16.484 31.9-20.986-6.08-2.399-4.572 6.207-4.768 10.348-.612 12.948-26.902 14.141-35.914-7.336-.486-1.504-1.002-2.464-1.691-1.802m2.715 117.604c-7.739 7.325-7.351 7.628-15.172 14.824-10.04 9.239 35.352-1.499 35.68-1.3 2.363 1.434-4.593 5.869-17.997 7.957-2.452.383-1.494 2.455.978 2.297 18.912-1.205 38.743 1.6 52.792-6.574 6.665-3.878 12.029-10.227 15.376-20.648.573-1.784 1.168-8.869-.968-9.504-8.052-2.396-23.142-4.752-38.948-1.954-10.935 1.936-22.213 6.338-31.741 14.902m-135.6-209.292c-2.845.007-6.03.817-6.431 1.256-1.502 1.645 11.385 14.488 13.829 16.107a36 36 0 0 0 5.916 3.187c8.709 3.652 16.432 2.459 21.772.806 2.723-.843 4.825-1.805 6.123-2.307 12.638-4.881 14.983.898 16.652-1.474 1.255-1.782-5.829-4.066-8.526-5.265-6.581-2.925-8.32.783-14.238 1.006-2.261.085-4.282.108-6.096.078-13.665-.226-15.564-3.477-19.44-6.09-4.82-4.477-4.491-5.333-5.615-6.324-.827-.728-2.332-.983-3.946-.98m57.536 88.805c-4.44 11.52-7.849 24.167-9.607 36.995-.324 2.365 1.47 2.473 2.055.91 7.276-19.452 14.142-21.206 14.482-16.961 1.678 20.901-11.959 36.716 12.43 50.382 10.137 5.68-5.053 3.151-11.899-1.114-5.886-3.668-.71 9.038.327 10.648 9.412 14.614 22.387 14.643 31.675 15.408.052.559.776.907.828 1.466.072.765-11.248 1.928-14.719 1.337-12.744-2.17-15.7-4.218-14.373-.998 4.163 10.103 24.728 29.628 56.555 14.322a38 38 0 0 0 3.737-2.053c7.913-4.963 11.252-11.447 24.9-22.306 3.38-2.69 7.392-5.647 12.262-8.916.208-.14 3.38-2.269 3.127-.121-.06.51-7.665 6.507-13.392 11.649-4.843 4.349-8.344 8.085-4.801 7.373 1.155-.232 1.929-1.524 6.803-4.754 3.317-2.198 8.532-5.293 17.059-9.564 7.908-3.96 5.721-5.926 7.451-14.657.084-.424.352-9.062-.012-11.128-1.601-9.096-30.53-3.298-48.137-39.011-2.873-5.828-4.969-14.203-5.421-20.306-.28-3.791.075-6.705 1.272-7.584.6-.44 1.338-.653 1.985-1.02.848-.481 9.455-16.41 33.44-19.135a54 54 0 0 1 1.512-.152c9.019-.794 8.952-1.413 17.988-.422 7.385.81 27.486-.832 38.794 19.863 6.876 12.583 2.428 18.572 1.824 26.814-2.48 20.819-17.301 29.121-19.843 30.545-4.596 2.574-15.493 6.512-16.079 10.377-1.386 9.15-.829 9.154-1.954 19.053-.819 7.201 3.749 4.673 16.206 15.315 1.14.973 2.707.045.959-2.174-.888-1.126-9.005-10.329-4.905-8.875 1.085.385 10.905 9.16 16.612 19.037 10.794 18.681 6.251 30.128 13.185 25.355 5.943-4.091 12.943-32.978 14.927-39.583.002-.007 7.236-23.3-5.066-66.96-.573-2.032-4.221-13.702-4.134-13.972.862-2.664 2.995 1.869 3.124 2.143 1.933 4.109 6.388 14.037 7.355 14.111 3.461.263 10.755-33.284 8.282-47.398-1.31-7.476-.701-13.273-6.612-29.828-.003-.008-3.634-12.306-5.15-8.907-1.052 2.359-2.176 21.403-15.338 35.099-5.121 5.328.282-4.169.46-4.483 7.577-13.32 15.915-58.304 12.232-75.798-1.178-5.595.191-15.047-17.507-43.253-6.877-10.96-27.442-40.095-31.411-44.697-4.091-4.745-27.281-35.797-65.909-37.028-21.395-.682-41.514-.16-52.109 5.279-8.677 4.454-1.828 7.862 4.666 18.913 2.351 4 4.29 7 6.003 9.461 5.789 8.31 9.007 10.45 16.84 24.058 7.046 12.24 10.928 22.798 13.03 32.588 3.203 14.917 2.275 28.054 2.106 42.648-.26 22.542 7.898 31.165 4.655 35.853-.49.708-1.239 1.326-2.317 1.889-15.692 8.199-18.441 7.403-30.691 18.577a233 233 0 0 0-4.552 4.28c-4.794 4.619-9.535 10.801-13.928 18.094-4.156 6.903-8 14.802-11.282 23.316m140.184-123.876c-.85 4.847-5.257 12.2-1.677 10.562 3.507-1.604 5.903-4.451 5.251-.649-.174 1.016-1.06.392-8.62 9.574-11.627 14.121-2.725-19.815 5.046-19.487m-54.091 1.852c-.189-4.453-.619-4.616.156-5.39 3.132-3.13-.941 5.561 13.145 27.511 4.773 7.438-11.75-.242-13.301-22.121m16.29-13.371c-1.145-.528-1.718-.362-1.339-1.577 4.732-15.168 27.988-16.33 19.34-12.313-1.473.684-3.074 1.065-4.546 1.75-7.529 3.503-13.443 12.128-13.455 12.14m61.739 113.732c-2.351-2.831-17.756-21.385-30.836-34.125-15.497-15.095 8.341 2.749 10.924 5.179 18.577 17.484 19.589 22.11 23.669 30.527 6.671 13.76-3.574-1.312-3.757-1.581m-31.05-64.066c7.942-13.567 12.429-17.074 23.497-16.86 11.691.226 16.712 8.632 16.616 9.566-.464 4.533-5.722-2.257-7.15 2.119-6.542 20.049-25.137 11.418-30.42 12.306-1.358.228-2.679.675-4.049.813-3.389.341 1.177-7.387 1.506-7.944m17.019-9.766q0 .243.022.538c.308 4.112 4.529-1.424 5.067.978.097.436-1.725 3.515-1.899 3.807-4.798 8.107-11.36-2.283-13.911 3.044-3.347 6.988 6.449 5.734 9.197 5.69 9.247-.147 11.524-8.388 11.543-8.617.671-7.975-2.041-7.478-6.512-7.453-2.378.438-3.508-.005-3.507 2.013m-303.417 61.293c-3.263 6.012-4.319 11.89-4.554 13.195-1.248 6.943 4.688-3.244 4.935-3.67 3.681-5.241 3.75-5.172 4.055-5.637 4.045-6.157 7.978-16.816 3.589-13.503-3.569 2.694-6.158 6.177-8.025 9.615m294.41 180.711c-3.45 3.457-8.8 6.831-4.534 6.933.802.019 8.113-2.392 8.761-2.863 10.047-7.317 11.729-21.844 7.505-16.373-5.22 6.764-6.137 5.869-11.732 12.303m-30.569-167.998c-1.034.256-15.757 3.904-11.793 6.2 2.96 1.715 33.925-9.836 11.793-6.2m-183.966-91.88c-12.152 9.283-27.974 24.393-13.927 26.012 13.104 1.511 16.949-8.037 21.052-15.014.675-1.147 1.356-2.224 2.086-3.171q.513-.668 1.065-1.241a43.5 43.5 0 0 1 6.478-5.472l.133-.092c2.569-1.77 5.238-3.239 7.877-4.459a65.6 65.6 0 0 1 8.65-3.255c6.243-1.872 11.254-2.441 12.692-2.604 2.488-.283 2.531-2.374 1.1-2.697-6.116-1.382-13.597-.935-19.024-.274a96 96 0 0 0-7.07 1.124c-.751.147-1.548.364-2.368.629-2.668.864-5.586 2.252-7.995 3.521l-.136.071a92 92 0 0 0-4.898 2.787c-.96.651-2.008 1.388-3.113 2.193-.839.611-1.711 1.261-2.602 1.942m30.985 19.732c-.498.256-1.052.601-1.669 1.051-2.326 1.699-1.824 10.936 12.447 13.051l.283.04c1.36.002 17.884.016 16.077-5.548-.208-.64-3.461-10.657-5.995-5.904-3.924 7.36-15.21 7.532-16.768-1.129-.074-.415-.611-3.399-4.209-1.644zm66.4-4.283c-1.176 2.484-1.791 3.952-.391 3.556.556-.158 1.457-.795 2.514-1.82 6.034-5.855 17.161-24.37-1.67-38.561-6.565-4.948-17.004-5.919-16.442-4.296.13.375.846.888 2.332 1.523 3.428 1.401 19.982 6.589 17.83 27.498-.466 4.522-2.737 9.068-4.173 12.1M528.86 415.83c.31-.628 1.921-3.894 2.864-8.267.256-1.186 1.109-13.155-.158-13.25-3.789-.287.193 2.815-4.677 20.248-.442 1.582.419 3.886 1.971 1.269M236.62 130.832c-2.598 4.364-4.891 8.707-6.69 12.868-17.484 40.441-10.883 51.712-8.772 63.88.682 3.926 3.346 1.38 3.563 1.172 6.533-6.242 11.183-9.853 14.527-12.169 4.964-3.439 7.05-4.023 8.142-6.126 1.665-3.21-3.118.192-8.317 1.751-1.548.465-3.133.766-4.595.68-5.356-.314-7.023-16.33 2.925-42.472a176 176 0 0 1 3.795-9.166q.645-1.447 1.335-2.927a212 212 0 0 1 3.814-7.756l.136-.264.063-.121.229-.44.328-.626.009-.016.473-.895.435-.815a230 230 0 0 1 3.067-5.537q.835-1.463 1.71-2.95a272 272 0 0 1 3.878-6.379c4.915-7.841 10.641-16.104 17.278-24.719 1.401-1.625 1.454-1.543 1.79-2.23 2.338-4.792-3.819.179-12.532 9.794-4.513 4.979-9.71 11.203-14.768 17.961a237 237 0 0 0-4.6 6.36l-.575.829c-.24.348-3.263 4.863-3.992 6.007a160.762 160.762 0 0 0-2.656 4.306m123.677 377.162c9.951 4.436 23.208 3.582 23.625 2.69 1.198-2.566-10.944-3.23-20.453-7.103-9.803-3.993-15.999-7.303-14.517-4.257.016.031 4.121 5.488 11.345 8.67m-193.513-50.128c6.064-2.765 13.367-.546 16.811 5.328l19.56 33.358c3.427 5.846 1.828 13.262-3.486 17.218l-5.126-7.422a4.17 4.17 0 0 0 .848-5.244l-19.56-33.358a4.17 4.17 0 0 0-5.046-1.801zm9.018 20.704L187 497.668a10 10 0 0 0-13.717 5.335l-8.587-14.646a10.003 10.003 0 0 0 11.106-9.787m-22.07-1.993a4.17 4.17 0 0 0 .075 4.083l19.559 33.358a4.17 4.17 0 0 0 3.591 2.061l5.414 7.839c-6.055 2.735-13.333.512-16.769-5.348l-19.559-33.358c-3.42-5.833-1.836-13.229 3.451-17.192zm37.325 59.915-.164.14c-7.842 6.684-8.781 18.477-2.097 26.319l25.086 29.428c6.684 7.842 18.477 8.781 26.319 2.097l.57-.486 10.873 8.862c-5.221 8.827-2.332 20.241 6.476 25.518l33.174 19.871c8.839 5.295 20.314 2.417 25.609-6.422l1.92-3.205 13.743 4.579-.314 3.626c-.891 10.265 6.719 19.323 16.985 20.214l38.524 3.344c10.265.891 19.323-6.72 20.214-16.985l.303-3.486 15.861-3.148 2.186 3.679c5.263 8.859 16.728 11.778 25.586 6.515l33.245-19.752c8.858-5.263 11.777-16.728 6.514-25.586l-1.714-2.885 6.846-5.628c7.666 6.69 19.326 6.007 26.154-1.584l23.753-26.407c5.598 18.488 6.84 40.004-9.135 61.194-40.316 53.478-71.399 64.555-151.1 64.44-88.813-.129-175.723-58.949-227.73-107.395-37.853-35.261-52.065-57.341-39.307-80.87 6.606-12.182 13.05-22.813 19.346-32.562a18.6 18.6 0 0 0 2.516 8.077l19.559 33.358c5.043 8.601 15.923 11.674 24.675 7.143zm18.581-8.29c5.376-3.025 12.321-1.929 16.472 2.941l25.086 29.428c4.086 4.794 4.133 11.68.474 16.501l-6.991-5.698a4.175 4.175 0 0 0-.332-4.964l-25.086-29.428a4.17 4.17 0 0 0-4.436-1.27zm11.242 19.157 15.899 18.652c-3.712-1.033-7.853.139-10.442 3.315a9.94 9.94 0 0 0-2.065 4.412l-13.764-16.146a9.95 9.95 0 0 0 6.058-1.764 10 10 0 0 0 4.314-8.469m-21.425 1.291a4.17 4.17 0 0 0 .376 4.894l25.086 29.429a4.17 4.17 0 0 0 4.025 1.376l7.492 6.107c-5.53 4.533-13.708 3.821-18.367-1.645l-25.085-29.428c-4.641-5.444-4.073-13.587 1.219-18.339zm67.011 40.481c4.085-4.87 11.225-6.193 16.85-2.823l33.174 19.871c4.538 2.718 6.848 7.746 6.33 12.685l-9.295-3.097a4.15 4.15 0 0 0-1.66-1.867l-33.173-19.872a4.17 4.17 0 0 0-5.246.792zm14.808 12.855 18.441 11.047a9.99 9.99 0 0 0-6.699 6.441 9.96 9.96 0 0 0 .072 6.528l-16.333-9.784a9.95 9.95 0 0 0 3.668-2.811c2.722-3.34 2.928-7.916.851-11.421m-17.724 10.57a4.17 4.17 0 0 0 2.022 3.375l33.173 19.871a4.17 4.17 0 0 0 5.719-1.434l.269-.449 8.746 2.914-1.294 2.16c-3.735 6.235-11.83 8.265-18.065 4.53l-33.173-19.871c-5.973-3.578-8.087-11.157-4.971-17.269zm77.296 12.314c2.454-4.374 7.313-7.146 12.631-6.685l38.524 3.344c5.393.468 9.748 4.132 11.359 8.963l-9.06 1.798a4.17 4.17 0 0 0-3.077-1.795l-38.525-3.344a4.15 4.15 0 0 0-2.763.748zm17.409 8.284 25.021 2.172c-3.164 2.202-4.902 6.142-4.104 10.162a9.95 9.95 0 0 0 1.949 4.237l-27.058-2.348a9.98 9.98 0 0 0 5.149-5.847 9.98 9.98 0 0 0-.957-8.376m-11.543 14.75-.015.169a4.17 4.17 0 0 0 3.793 4.514l38.525 3.344a4.17 4.17 0 0 0 4.388-3.072l9.257-1.838-.164 1.895c-.629 7.241-7.018 12.61-14.259 11.981l-38.525-3.344c-7.241-.628-12.61-7.017-11.981-14.259l.201-2.314 8.631 2.876zm93-23.871 18.708-11.115a9.97 9.97 0 0 0 2.256 6.937 9.99 9.99 0 0 0 8.417 3.625l-21.597 12.831a10 10 0 0 0 .115-4.407c-.814-4.1-4.033-7.116-7.899-7.871m62.344-50.916 12.146-13.503a9.97 9.97 0 0 0 3.935 6.439 9.98 9.98 0 0 0 8.328 1.657l-10.071 11.196a10 10 0 0 0-1.82-3.361c-3.099-3.77-8.388-4.688-12.518-2.428m-81.597 53.981c-.353-4.822 1.971-9.663 6.408-12.299l33.244-19.752c4.602-2.734 10.202-2.337 14.316.557l-8.053 6.621a4.2 4.2 0 0 0-1.666.56l-33.244 19.751a4.16 4.16 0 0 0-1.958 2.767zm18.865 16.646a4.174 4.174 0 0 0 5.181.742l33.244-19.752a4.17 4.17 0 0 0 1.455-5.714l-.579-.975 7.033-5.782 1.283 2.16c3.713 6.249 1.654 14.336-4.595 18.049l-33.244 19.751c-6.249 3.713-14.336 1.654-18.049-4.595l-1.192-2.006zM144.702 445.95a4.5 4.5 0 0 1 2.035-6.03 4.503 4.503 0 0 1 6.03 2.035l17.068 34.467a4.5 4.5 0 0 1-8.065 3.994zm34.191 63.254a4.501 4.501 0 0 1 7.405-5.115l28.288 40.954a4.503 4.503 0 0 1-1.145 6.26 4.504 4.504 0 0 1-6.261-1.145zm52.353 69.928a4.5 4.5 0 0 1-.645-6.331 4.5 4.5 0 0 1 6.331-.645l38.582 31.445a4.5 4.5 0 0 1 .646 6.331 4.5 4.5 0 0 1-6.331.645zm69.834 47.773a4.5 4.5 0 0 1-2.846-5.692 4.5 4.5 0 0 1 5.691-2.847l47.222 15.734a4.5 4.5 0 0 1 2.847 5.691 4.5 4.5 0 0 1-5.692 2.847zm88.777 21.05a4.5 4.5 0 0 1-5.29-3.538 4.5 4.5 0 0 1 3.538-5.29l48.821-9.69a4.503 4.503 0 0 1 5.29 3.538 4.503 4.503 0 0 1-3.538 5.29zm137.835-87.283a4.503 4.503 0 0 1-6.292.953 4.5 4.5 0 0 1-.954-6.292l19.534-26.511a4.503 4.503 0 0 1 6.293-.954 4.503 4.503 0 0 1 .953 6.292z" class="fill"/></svg>
