<svg xmlns="http://www.w3.org/2000/svg" xml:space="preserve" viewBox="0 0 1024 1024"><title>Cupcake Logo</title><path d="m697.612 859.402-39.529 32.497a6.923 6.923 0 0 1-9.741-.951 6.924 6.924 0 0 1 .951-9.74l37.911-31.168-4.165-3.747c-8.311-7.475-8.989-20.291-1.514-28.602l39.771-44.214c5.956-6.622 15.302-8.398 23.059-5.066l-9.052 12.286a6.38 6.38 0 0 0-3.716 2.036l-39.771 44.214a6.416 6.416 0 0 0 .479 9.056l5.723 5.147 10.405-8.554a6.923 6.923 0 0 1 9.741.951 6.924 6.924 0 0 1-.951 9.741l-8.787 7.224 3.527 3.173a6.415 6.415 0 0 0 9.055-.479l39.771-44.215a6.414 6.414 0 0 0-.479-9.055l-.582-.523 8.25-11.197 1.588 1.429c8.311 7.476 8.989 20.292 1.514 28.602l-39.771 44.215c-7.475 8.311-20.292 8.989-28.602 1.513zM181.397 630.165c31.811-45.938 61.124-90.696 88.723-177.466 9.226-29.006 12.08-53.395 7.582-67.931-6.546-21.156-22.403-40.754-27.279-58.886-6.842-25.439-4.999-46.193-2.939-71.476 3.8-46.642 15.681-84.399 53.781-138.995C357.301 35.115 406.821 10.489 412.43 12.441c5.891 2.049 3.98 85.018 24.501 111.951 10.579 13.885 18.213 11.829 52.737 12.861 19.204.574 150.267-2.8 155.909-7.748 17.858-15.661 14.717-108.014 19.069-107.858 2.274.082 24.972 14.39 47.022 45.642 48.428 68.638 33.194 113.846 51.823 134.472 14.236 15.763 52.29 70.775 69.194 120.275 7.041 20.618-.412 54.919 4.086 66.263 15.297 38.583 35.981 82.074 4.993 164.651-4.529 12.069 9.895 35.94-1.332 83.042-16.813 70.54-22.07 79.474-43.631 77.428-10.395-.986-49.814 40.664-48.922 47.298-11.032-4.831-24.382-2.337-32.872 7.102l-39.77 44.214c-9.647 10.725-9.716 26.742-.764 37.523l-4.812 3.956c-9.085-7.559-22.307-8.994-33.041-2.616l-51.127 30.375c-9.987 5.934-15.066 16.994-13.876 27.843l-9.61 1.907c-3.228-11.03-12.95-19.501-25.082-20.554l-59.247-5.143c-12.161-1.056-23.22 5.648-28.285 15.999l-11.433-3.809c1.937-11.338-3.095-23.222-13.549-29.484l-51.017-30.56c-12.302-7.369-27.925-4.445-36.818 6.254l-9.637-7.854c8.161-10.521 8.123-25.682-.852-36.21l-38.58-45.258c-9.226-10.823-24.781-13.097-36.591-6.017l-5.699-8.251c11.784-8.578 15.373-24.885 7.847-37.721l-30.08-51.301c-7.557-12.887-23.637-17.705-36.907-11.499zM585.43 375.666c.475 5.862.87 9.278 2.516 7.628.653-.656 1.382-2.512 1.998-5.269 3.512-15.739 3.319-60.816-35.687-79.23-13.599-6.419-29.264-2.282-27.063.764.508.703 1.968 1.348 4.626 1.791 6.081.891 34.075 1.92 49.082 46.684 3.245 9.681 3.947 20.478 4.528 27.632m-154.54 30.528c-5.802-4.544-9.279-7.116-9.108-4.686.068.965 1.183 2.973 3.223 5.652 11.644 15.296 53.414 52.477 102.449 42.495 17.095-3.48 26.141-17.034 21.522-18.131-1.066-.254-2.861.157-5.453 1.509-5.817 3.194-29.758 20.443-83.407-6.899-11.602-5.913-22.145-14.395-29.226-19.94m76.953-62.767c.778.041 17.163.913 9.417-2.51-24.24-10.71-64.673 17.1-57.416 19.062 1.954.528 1.91-.075 23.46-9.492 13.866-6.058 18.726-5.868 24.539-7.06M467.184 738.39c-41.852-30.835-26.674-63.593-47.754-88.06-2.411-2.798-13.175-9.821-14.729-9.927-7.195-.493 7.2 6.427 14.652 30.999.55 1.813 5.283 17.419 5.854 22.953.385 3.744-1.754 1.697-5.309.67-5.087-1.47-28.352-4.937-57.856-21.44-80.917-45.262-93.022-145.953-93.356-146.232-5.131-4.287-2.069 28.836 1.151 43.823 11.68 54.367 19.334 63.145 36.036 83.369 22.163 26.839 43.887 42.175 114.041 61.726 14.47 4.032 12.9 7.147 22.492 18.598 20.923 24.975 31.586 21.117 39.08 31.15 5.084 6.808 4.636 11.077 4.803 41.568.068 12.385-.918 21.728 3.729 13.505 7.287-12.541 7.859-12.435 13.333-37.533 1.395-6.395-8.062-13.2-.23-12.256 40.699 4.908 67.955-18.438 102.998-22.27 8.969-.981 14.985-3.415 20.262-3.103 5.035.298 9.851.898 11.917 8.79 1.376 5.257-21.644 60.135-24.977 65.464-2.078 3.321 2.082 3.991 3.771.37 4.1-8.792 20.234-24.442 42.082-62.759 6.572-11.524 7.498-10.799 14.142-22.222 4.021-6.913-25.373-.944-48.742-.346-16.342.418-16.068 2.488-32.29 3.015-26.712.868-73.637 33.678-118.839 4.463a124 124 0 0 1-6.261-4.315M413.09 330.513c-16.086 17.156-36.268 44.078-14.549 42.982 20.26-1.022 23.678-16.478 28.139-28.1.733-1.909 1.494-3.715 2.362-5.337.408-.76.839-1.48 1.302-2.151 2.532-3.672 5.396-6.975 8.443-9.94l.178-.173c3.449-3.334 7.128-6.238 10.822-8.755 4.183-2.851 8.387-5.205 12.299-7.126 8.997-4.419 16.454-6.548 18.595-7.16 3.703-1.057 3.239-4.24.986-4.369-9.626-.549-20.862 2.02-28.927 4.395-5.312 1.564-9.248 3.044-10.442 3.492a32 32 0 0 0-3.433 1.554c-3.828 1.986-7.904 4.829-11.238 7.362l-.188.144a142 142 0 0 0-6.725 5.464 180 180 0 0 0-4.168 4.115 221 221 0 0 0-3.456 3.603m74.696 26.577c-.765.394-1.617.924-2.566 1.616-3.578 2.613-2.805 16.819 19.142 20.071l.434.062c2.093.002 27.505.025 24.725-8.532-.319-.985-5.323-16.389-9.219-9.08-6.034 11.318-23.391 11.582-25.787-1.737-.115-.638-.94-5.226-6.473-2.528zm-23.176 7.432c-4.376.009-9.273 1.256-9.89 1.931-2.31 2.529 17.509 22.28 21.268 24.771 3.091 2.047 6.132 3.657 9.098 4.9 13.393 5.617 25.271 3.782 33.483 1.24 4.187-1.296 7.421-2.776 9.416-3.547 19.436-7.507 23.042 1.38 25.61-2.268 1.929-2.74-8.966-6.253-13.113-8.096-10.121-4.5-12.796 1.203-21.896 1.546a174 174 0 0 1-9.376.121c-21.014-.348-23.935-5.348-29.896-9.367-7.413-6.885-6.906-8.2-8.636-9.725-1.271-1.12-3.585-1.512-6.068-1.506m98.034 103.247c-112.191 186.308 37.901 232.248 86.847 208.709 2.107-1.013 63.313-37.558 76.426-44.125 12.162-6.091 8.798-9.115 11.459-22.542.129-.651.542-13.936-.018-17.113-2.463-13.99-46.952-5.072-74.03-59.995-4.419-8.962-7.642-21.844-8.336-31.228-1.378-18.635 20.164-42.048 56.996-46.695 33.783-4.262 66.325 5.161 81.527 28.491 12.039 18.475 12.671 32.862 10.368 46.445-5.348 31.542-26.607 44.785-30.517 46.975-7.067 3.959-23.827 10.014-24.728 15.96-2.132 14.07-1.275 14.078-3.005 29.301-1.259 11.075 5.766 7.187 24.924 23.553 1.752 1.496 5.619 4.213 14.396 19.402 16.601 28.729 14.695 39.216 25.359 31.876 9.141-6.292 19.905-50.717 22.956-60.875.004-.011 11.128-35.834-7.79-102.977-.881-3.126-6.492-21.073-6.358-21.488 1.326-4.097 4.606 2.874 4.804 3.296 2.973 6.319 9.825 21.588 11.312 21.701 5.323.405 16.539-51.187 12.736-72.893-2.014-11.497-1.077-20.412-10.168-45.873-.004-.011-5.589-18.925-7.92-13.697-1.618 3.628-3.346 32.915-23.589 53.977-7.875 8.194.434-6.411.708-6.893 11.653-20.485 23.866-89.545 18.812-116.57-3.214-17.183-7.554-33.101-26.925-66.519-9.979-17.215-39.458-56.122-45.562-63.201-6.292-7.296-44.699-60.59-104.106-62.483-32.903-1.049-63.843-.246-80.138 8.119-13.344 6.85 0 23.938 16.408 43.635 9.969 11.968 13.852 16.071 25.898 37 10.836 18.824 16.806 35.06 20.039 50.117 4.927 22.941 3.499 43.143 3.239 65.588-.4 34.667 12.146 47.928 7.158 55.139-.753 1.088-46.922 12.311-79.182 65.883m98.527 40.29c-2.414 2.318 4.915 22.53 16.107 30.414 49.93 35.17 66.608-25.351 49.059-32.274-9.351-3.689-7.031 9.545-7.332 15.914-.942 19.912-41.372 21.747-55.232-11.282-.748-2.313-1.542-3.789-2.602-2.772m52.539 157.048c-16.939 2.173-65.51 20.797-65.242 41.194.274 20.981 28.549 19.675 42.476 19.432 29.14-.507 39.609-1.327 60.957-10.352 10.924-4.618 20.139-15.05 21.169-33.477.955-17.07-34.586-19.975-59.36-16.797M502.325 361.503c6.551 3.3 7.697-5.731 2.403-5.121-3.661.422-3.4 1.611-2.403 5.121m270.308 147.374c-3.94 4.097-4.187 13.532-4.219 14.724-.839 31.996 30.378 19.265 31.547 7.628-2.383.624-2.32.516-4.704 1.231-10.373 3.11-17.15-.812-17.484-5.692-.384-5.619.012-10.171.25-13.482.338-4.687.359-6.887-2.597-6.107-1.093.288-2.015.889-2.793 1.698m-582.801 138.32c9.326-4.251 20.559-.838 25.855 8.194l30.08 51.301c5.272 8.991 2.813 20.396-5.36 26.48l-7.883-11.413a6.42 6.42 0 0 0 1.303-8.066l-30.08-51.301a6.42 6.42 0 0 0-7.761-2.769zm13.871 31.842 17.221 29.371c-4.835-2.365-10.775-2.122-15.515 1.153a15.3 15.3 0 0 0-5.581 7.05l-13.207-22.524a15.3 15.3 0 0 0 8.528-1.502c5.336-2.642 8.462-7.974 8.554-13.548m-33.943-3.066a6.41 6.41 0 0 0 .116 6.28l30.08 51.301a6.41 6.41 0 0 0 5.522 3.168l8.327 12.056c-9.313 4.206-20.505.788-25.789-8.223l-30.08-51.301c-5.261-8.972-2.824-20.347 5.307-26.44zm57.402 92.143-.252.215c-12.06 10.28-13.505 28.417-3.225 40.476l38.579 45.258c10.28 12.059 28.417 13.504 40.477 3.224l.876-.747 16.722 13.629c-8.029 13.575-3.587 31.129 9.96 39.244l51.017 30.56c13.594 8.143 31.242 3.717 39.385-9.877l2.953-4.929 21.135 7.042-.484 5.576c-1.37 15.787 10.334 29.717 26.121 31.087l59.247 5.143c15.787 1.37 29.716-10.334 31.087-26.121l.465-5.36 24.393-4.842 3.362 5.658c8.094 13.624 25.725 18.113 39.349 10.019l51.126-30.376c13.624-8.094 18.113-25.726 10.019-39.349l-2.636-4.436 10.529-8.656c11.788 10.289 29.721 9.238 40.221-2.435l36.53-40.613c8.609 28.433 10.519 61.523-14.049 94.111-62.002 82.243-109.804 99.278-232.376 99.101-136.585-.197-270.243-90.657-350.225-165.162-58.214-54.228-80.071-88.184-60.449-124.37 10.159-18.734 20.069-35.084 29.751-50.077a28.6 28.6 0 0 0 3.869 12.423l30.08 51.301c7.756 13.226 24.489 17.953 37.949 10.985zm28.576-12.749c8.268-4.652 18.948-2.966 25.332 4.523l38.579 45.258c6.284 7.371 6.358 17.962.73 25.376l-10.752-8.763a6.42 6.42 0 0 0-.511-7.634l-38.579-45.258a6.42 6.42 0 0 0-6.821-1.952zm17.288 29.461 24.453 28.686c-5.709-1.59-12.078.213-16.059 5.098a15.3 15.3 0 0 0-3.177 6.784l-21.167-24.83a15.3 15.3 0 0 0 9.317-2.713c4.423-3.055 6.748-8.02 6.633-13.025m-32.949 1.986a6.42 6.42 0 0 0 .579 7.527l38.579 45.258a6.41 6.41 0 0 0 6.19 2.117l11.523 9.391c-8.505 6.971-21.081 5.876-28.246-2.529l-38.58-45.258c-7.136-8.372-6.262-20.896 1.876-28.203zm103.057 62.256c6.282-7.491 17.262-9.525 25.914-4.343l51.017 30.56c6.979 4.181 10.532 11.913 9.735 19.509l-14.295-4.763a6.38 6.38 0 0 0-2.553-2.872l-51.017-30.56a6.42 6.42 0 0 0-8.067 1.217zm22.772 19.77 28.361 16.988c-4.685 1.366-8.645 4.931-10.303 9.906a15.3 15.3 0 0 0 .112 10.04l-25.119-15.047a15.3 15.3 0 0 0 5.641-4.324c4.187-5.137 4.502-12.173 1.308-17.563m-27.257 16.254a6.41 6.41 0 0 0 3.109 5.191l51.017 30.56a6.416 6.416 0 0 0 8.796-2.206l.413-.69 13.45 4.481-1.99 3.322c-5.744 9.589-18.192 12.711-27.782 6.966l-51.016-30.559c-9.186-5.503-12.437-17.158-7.645-26.558zm118.873 18.939c3.775-6.727 11.246-10.991 19.425-10.281l59.247 5.143c8.294.72 14.99 6.354 17.469 13.784l-13.935 2.765a6.4 6.4 0 0 0-4.731-2.76l-59.247-5.143a6.4 6.4 0 0 0-4.25 1.149zm26.774 12.74 38.479 3.34c-4.866 3.386-7.538 9.445-6.311 15.628a15.3 15.3 0 0 0 2.997 6.516l-41.612-3.612a15.34 15.34 0 0 0 7.918-8.991 15.35 15.35 0 0 0-1.471-12.881m-17.753 22.684-.022.259a6.415 6.415 0 0 0 5.833 6.942l59.247 5.143a6.42 6.42 0 0 0 6.748-4.725l14.237-2.826-.253 2.915c-.967 11.136-10.793 19.392-21.929 18.425l-59.246-5.142c-11.137-.967-19.393-10.793-18.426-21.929l.309-3.559 13.274 4.423zm143.025-36.711 28.771-17.094a15.32 15.32 0 0 0 3.47 10.668c3.279 3.989 8.153 5.902 12.944 5.574l-33.215 19.734c.549-2.152.638-4.456.177-6.778-1.251-6.305-6.202-10.943-12.147-12.104m95.878-78.304 18.68-20.767a15.32 15.32 0 0 0 6.052 9.903c3.824 2.818 8.525 3.601 12.807 2.548l-15.489 17.219a15.3 15.3 0 0 0-2.798-5.17c-4.766-5.796-12.9-7.208-19.252-3.733m-125.487 83.017c-.543-7.416 3.032-14.861 9.854-18.915l51.127-30.376c7.077-4.205 15.689-3.595 22.016.857l-12.385 10.182a6.4 6.4 0 0 0-2.561.861l-51.127 30.375a6.4 6.4 0 0 0-3.011 4.255zm29.012 25.6a6.42 6.42 0 0 0 7.968 1.141l51.126-30.376a6.416 6.416 0 0 0 2.238-8.788l-.892-1.5 10.817-8.892 1.974 3.322c5.709 9.61 2.543 22.048-7.067 27.757l-51.127 30.376c-9.61 5.709-22.047 2.543-27.756-7.067l-1.833-3.085zM155.873 628.871a6.924 6.924 0 0 1 3.13-9.273 6.924 6.924 0 0 1 9.273 3.131l26.25 53.005a6.924 6.924 0 0 1-3.131 9.273 6.923 6.923 0 0 1-9.272-3.13zm52.582 97.279a6.924 6.924 0 0 1 1.761-9.628 6.925 6.925 0 0 1 9.627 1.761l43.504 62.983a6.924 6.924 0 0 1-1.761 9.628 6.925 6.925 0 0 1-9.627-1.761zm80.514 107.542a6.923 6.923 0 0 1-.993-9.736 6.924 6.924 0 0 1 9.737-.993l59.336 48.36a6.92 6.92 0 0 1 .992 9.736 6.923 6.923 0 0 1-9.736.993zm107.398 73.469a6.92 6.92 0 0 1-4.378-8.753 6.923 6.923 0 0 1 8.753-4.378l72.622 24.197a6.923 6.923 0 0 1 4.378 8.753 6.923 6.923 0 0 1-8.753 4.378zm136.529 32.374a6.924 6.924 0 0 1-8.136-5.441 6.924 6.924 0 0 1 5.441-8.135l75.082-14.903a6.924 6.924 0 0 1 8.136 5.441 6.924 6.924 0 0 1-5.441 8.135zm211.976-134.233a6.925 6.925 0 0 1-9.677 1.467 6.924 6.924 0 0 1-1.466-9.677l30.041-40.772a6.924 6.924 0 0 1 9.677-1.466 6.923 6.923 0 0 1 1.466 9.676zm-5.693-515.306c-3.591 9.129-17.886 21.873-7.326 19.955 10.344-1.878 17.837-6.569 15.064.599-.741 1.914-3.105.387-26.797 15.571-36.437 23.352-2.921-39.519 19.059-36.125m-23.521 78.555c15.572-26.601 24.37-33.478 46.071-33.058 22.924.443 32.767 16.926 32.58 18.757-.909 8.889-11.219-4.426-14.019 4.154-12.827 39.311-49.287 22.389-59.646 24.128-2.661.447-5.252 1.325-7.938 1.595-6.645.669 2.307-14.484 2.952-15.576m33.37-19.149q0 .478.043 1.056c.604 8.062 8.88-2.793 9.934 1.916.192.856-3.381 6.892-3.721 7.467-9.409 15.894-22.274-4.478-27.278 5.968-6.562 13.701 12.646 11.242 18.035 11.156 18.129-.288 22.594-16.448 22.632-16.897 1.315-15.636-4.003-14.662-12.769-14.612-4.662.859-6.878-.01-6.876 3.946" fill="#fff"/></svg>
