<svg xmlns="http://www.w3.org/2000/svg" width="127" height="19" fill="none" viewBox="0 0 127 19"><title>Factory.ai Logo</title><path d="M28.395 15.852V2.622H38.3v2.362h-7.288v3.1h6.513v2.287h-6.513v5.481zM40.008 15.852l4.065-11.374a2.78 2.78 0 0 1 1.037-1.345 2.9 2.9 0 0 1 1.644-.512c.593 0 1.171.181 1.653.518s.844.812 1.035 1.36l3.959 11.353h-2.694l-.95-2.76H43.71l-.989 2.76zm4.476-5.065h4.497l-1.626-4.77c-.194-.57-1.02-.572-1.216-.003zM55.434 9.236c0-3.724 3.081-6.767 6.9-6.767 2.81 0 5.097 1.663 6.182 4.026l-2.48.7c-.698-1.343-1.978-2.307-3.702-2.307-2.481 0-4.303 1.928-4.303 4.348s1.823 4.328 4.303 4.328c1.724 0 2.965-.87 3.644-2.23l2.519.662c-1.066 2.344-3.334 3.988-6.163 3.988-3.819 0-6.9-3.023-6.9-6.748M75.417 15.852V4.984h-4.265V2.62h10.97v2.363h-4.108v10.868zM84.782 9.148c.06-3.713 3.134-6.681 6.941-6.66 3.8.023 6.859 3.038 6.878 6.767s-3.101 6.75-6.92 6.75c-3.855-.002-6.959-3.084-6.899-6.857m11.202.107c0-2.419-1.823-4.405-4.303-4.405-2.461 0-4.303 1.984-4.303 4.405 0 2.401 1.824 4.366 4.303 4.366s4.303-1.946 4.303-4.366M102.145 15.852V2.622h6.105c2.675 0 4.69 2.078 4.69 4.479a4.12 4.12 0 0 1-.78 2.4 4.3 4.3 0 0 1-2.049 1.531l3.023 4.82h-2.965l-2.811-4.498h-2.595v4.498zm2.616-6.71h3.45c1.241 0 2.21-.888 2.21-2.116 0-1.19-.912-2.117-2.171-2.117h-3.487zM119.726 11.713l-4.71-9.092h2.772l3.217 6.219 3.217-6.219h2.772l-4.652 9.016v4.215h-2.616zM13.906 3.205a.26.26 0 0 1-.166-.13.24.24 0 0 1-.008-.207c.487-1.155.701-2.079.355-2.465-.918-1.027-4.598 1.014-5.771 1.705a.26.26 0 0 1-.367-.118C7.456.838 6.937.036 6.412.002 5.019-.091 3.896 3.89 3.567 5.187a.25.25 0 0 1-.132.162.26.26 0 0 1-.212.008C2.039 4.882 1.09 4.673.694 5.01c-1.052.895 1.04 4.484 1.749 5.628a.244.244 0 0 1-.121.357c-1.181.481-2.003.987-2.04 1.5C.189 13.854 4.27 14.949 5.6 15.27a.26.26 0 0 1 .166.129.24.24 0 0 1 .008.207c-.486 1.155-.701 2.08-.355 2.466.918 1.026 4.598-1.015 5.772-1.706a.26.26 0 0 1 .366.118c.494 1.152 1.012 1.954 1.538 1.989 1.393.092 2.515-3.888 2.844-5.186a.25.25 0 0 1 .133-.162.26.26 0 0 1 .212-.007c1.184.474 2.132.683 2.528.346 1.053-.895-1.04-4.484-1.749-5.629a.244.244 0 0 1 .032-.297.3.3 0 0 1 .09-.06c1.18-.481 2.003-.987 2.038-1.5.096-1.358-3.986-2.453-5.317-2.773m-1.598-1.303c.268.469-1.112 3.587-2.138 5.769a.2.2 0 0 1-.08.087.21.21 0 0 1-.23-.017.2.2 0 0 1-.067-.098c-.414-1.418-.888-3.085-1.395-4.5a.24.24 0 0 1 .003-.17.25.25 0 0 1 .116-.13c1.265-.673 3.431-1.569 3.791-.94m-6.066.386c.528.147 1.814 3.304 2.67 5.554a.19.19 0 0 1-.058.217.2.2 0 0 1-.228.023c-1.323-.716-2.865-1.569-4.25-2.22a.25.25 0 0 1-.121-.123.24.24 0 0 1-.012-.17c.408-1.348 1.289-3.477 1.999-3.28m-4.01 4.457c.48-.261 3.678 1.084 5.915 2.085a.2.2 0 0 1 .09.079.19.19 0 0 1-.018.224.2.2 0 0 1-.1.064c-1.455.405-3.164.867-4.615 1.361a.26.26 0 0 1-.175-.003.25.25 0 0 1-.131-.113c-.69-1.234-1.61-3.346-.965-3.697m.396 5.916c.15-.516 3.387-1.77 5.695-2.604a.21.21 0 0 1 .222.056.19.19 0 0 1 .024.223c-.735 1.29-1.61 2.794-2.276 4.143a.25.25 0 0 1-.126.12.26.26 0 0 1-.175.01c-1.383-.394-3.565-1.256-3.364-1.948m4.57 3.91c-.268-.468 1.112-3.587 2.138-5.768a.2.2 0 0 1 .08-.088.21.21 0 0 1 .23.018q.049.04.067.098c.414 1.418.888 3.085 1.395 4.5a.24.24 0 0 1-.003.17.25.25 0 0 1-.116.128c-1.266.673-3.432 1.57-3.79.942zm6.066-.386c-.529-.146-1.815-3.303-2.67-5.553a.19.19 0 0 1 .057-.218.2.2 0 0 1 .23-.023c1.321.716 2.864 1.57 4.248 2.22a.25.25 0 0 1 .122.123.24.24 0 0 1 .011.17c-.407 1.351-1.288 3.477-1.998 3.28m4.01-4.456c-.48.261-3.679-1.085-5.915-2.086a.2.2 0 0 1-.09-.079.19.19 0 0 1 .017-.223.2.2 0 0 1 .101-.065c1.454-.404 3.163-.866 4.614-1.36a.26.26 0 0 1 .175.002.25.25 0 0 1 .132.113c.69 1.234 1.61 3.347.965 3.698m-.396-5.916c-.15.515-3.387 1.77-5.695 2.604a.21.21 0 0 1-.223-.056.195.195 0 0 1-.023-.224c.734-1.29 1.609-2.794 2.276-4.143a.25.25 0 0 1 .126-.119.26.26 0 0 1 .175-.011c1.382.397 3.564 1.256 3.364 1.949" fill="#000"/></svg>
